# xmcd
#
# Track frame offsets: 
#        150
#        18182
#        38245
#        55415
#        73037
#        89470
#        104392
#        121287
#        138182
#        154240
#        176335
#
# Disc length: 2586 seconds
#
# Revision: 2
# Processed by: cddbd v1.5.1PL0 Copyright (c) Steve Scherf et al.
# Submitted via: ExactAudioCopy v0.95b2
#
DISCID=8e0a180b
DTITLE=ZENO - Zenology II
DYEAR=2005
DGENRE=Hard Rock
TTITLE0=Call Of The Heart
TTITLE1=Tonight
TTITLE2=Hard Beat
TTITLE3=Dreaming The Night Away
TTITLE4=Good Game Bad Game
TTITLE5=Victoria
TTITLE6=On My Way
TTITLE7=Keep Your Love
TTITLE8=Troubled Love
TTITLE9=Time
TTITLE10=Free Again (Eagle Of Love)
EXTD=YEAR: 2005
EXTT0=
EXTT1=
EXTT2=
EXTT3=
EXTT4=
EXTT5=
EXTT6=
EXTT7=
EXTT8=
EXTT9=
EXTT10=
PLAYORDER=
